<svg xmlns="http://www.w3.org/2000/svg" viewBox="0 0 550 550" width="550" height="550" preserveAspectRatio="xMidYMid meet" style="width: 100%; height: 100%; transform: translate3d(0px, 0px, 0px);"><defs><clipPath id="__lottie_element_2"><rect width="550" height="550" x="0" y="0"></rect></clipPath><clipPath id="__lottie_element_4"><path d="M0,0 L550,0 L550,550 L0,550z"></path></clipPath><clipPath id="__lottie_element_8"><path d="M0,0 L550,0 L550,550 L0,550z"></path></clipPath><clipPath id="__lottie_element_15"><path d="M0,0 L550,0 L550,550 L0,550z"></path></clipPath></defs><g clip-path="url(#__lottie_element_2)"><g clip-path="url(#__lottie_element_4)" transform="matrix(1,0,0,1,0,0)" opacity="1" style="display: block;"><g transform="matrix(0,0,0,1,278,45)" opacity="1" style="display: none;"><path fill="rgb(255,255,255)" fill-opacity="1" d=" M471.7149963378906,204.31399536132812 C471.7149963378906,204.31399536132812 28.285999298095703,204.31399536132812 28.285999298095703,204.31399536132812 C28.285999298095703,204.31399536132812 28.285999298095703,59.42900085449219 28.285999298095703,59.42900085449219 C28.285999298095703,59.42900085449219 471.7149963378906,59.40800094604492 471.7149963378906,59.40800094604492 C471.7149963378906,59.40800094604492 471.7149963378906,204.31399536132812 471.7149963378906,204.31399536132812z M471.7149963378906,309.8290100097656 C471.7149963378906,309.8290100097656 250.10699462890625,437.17498779296875 250.10699462890625,437.17498779296875 C250.10699462890625,437.17498779296875 28.285999298095703,309.7669982910156 28.285999298095703,309.7669982910156 C28.285999298095703,309.7669982910156 28.285999298095703,220.28500366210938 28.285999298095703,220.28500366210938 C28.285999298095703,220.28500366210938 471.7149963378906,220.28500366210938 471.7149963378906,220.28500366210938 C471.7149963378906,220.28500366210938 471.7149963378906,309.8290100097656 471.7149963378906,309.8290100097656z M8.163999557495117,40.92399978637695 C8.163999557495117,40.92399978637695 8.149999618530273,320.0539855957031 8.149999618530273,320.0539855957031 C8.149999618530273,320.0539855957031 249.9810028076172,459.07598876953125 249.9810028076172,459.07598876953125 C249.9810028076172,459.07598876953125 491.8500061035156,320.04400634765625 491.8500061035156,320.04400634765625 C491.8500061035156,320.04400634765625 491.8500061035156,41.06999969482422 491.8500061035156,41.06999969482422 C491.8500061035156,41.06999969482422 8.163999557495117,40.92399978637695 8.163999557495117,40.92399978637695z"></path></g><g transform="matrix(0,0,0,1,276,45)" opacity="1" style="display: none;"><path fill="rgb(255,255,255)" fill-opacity="1" d=" M407.0090026855469,252.01199340820312 C407.0090026855469,252.01199340820312 435.8489990234375,252.00999450683594 435.8489990234375,252.00999450683594 C437.135986328125,252.00999450683594 438.1809997558594,253.0540008544922 438.1809997558594,254.3419952392578 C438.1809997558594,254.3419952392578 438.1809997558594,261.65301513671875 438.1809997558594,261.65301513671875 C438.1809997558594,263.3299865722656 437.864013671875,264.2300109863281 435.7049865722656,264.74700927734375 C435.7049865722656,264.74700927734375 407.0090026855469,271.0400085449219 407.0090026855469,271.0400085449219 C407.0090026855469,271.0400085449219 407.0090026855469,252.01199340820312 407.0090026855469,252.01199340820312z M391.8739929199219,333.5830078125 C392.125,333.7279968261719 392.447998046875,333.7300109863281 392.6990051269531,333.5880126953125 C392.6990051269531,333.5880126953125 406.91400146484375,325.52801513671875 406.91400146484375,325.52801513671875 C406.9729919433594,325.4949951171875 407.0090026855469,325.4330139160156 407.0090026855469,325.364990234375 C407.0090026855469,325.364990234375 407.0090026855469,286.1860046386719 407.0090026855469,286.1860046386719 C407.0090026855469,286.1860046386719 415.3110046386719,284.0190124511719 415.3110046386719,284.0190124511719 C415.3110046386719,284.0190124511719 439.7239990234375,305.85198974609375 439.7239990234375,305.85198974609375 C439.9630126953125,306.1789855957031 440.43701171875,306.2860107421875 440.8009948730469,306.072998046875 C440.8009948730469,306.072998046875 453.2349853515625,298.8500061035156 453.2349853515625,298.8500061035156 C453.4280090332031,298.7349853515625 453.57000732421875,298.5400085449219 453.62200927734375,298.3110046386719 C453.6579895019531,298.1400146484375 453.63800048828125,297.9580078125 453.5639953613281,297.7969970703125 C453.5639953613281,297.7969970703125 432.2309875488281,279.69500732421875 432.2309875488281,279.69500732421875 C432.2309875488281,279.69500732421875 447.3269958496094,275.8580017089844 447.3269958496094,275.8580017089844 C452.3550109863281,274.5740051269531 453.1409912109375,272.2309875488281 453.0799865722656,267.1189880371094 C453.0799865722656,267.1189880371094 453.0409851074219,242.26400756835938 453.0409851074219,242.26400756835938 C452.4119873046875,238.64999389648438 449.7959899902344,236.58399963378906 446.0249938964844,236.58399963378906 C445.8160095214844,236.58399963378906 445.5989990234375,236.58799743652344 445.489990234375,236.5989990234375 C445.489990234375,236.5989990234375 392.2869873046875,236.5919952392578 392.2869873046875,236.5919952392578 C391.87799072265625,236.5919952392578 391.46099853515625,237.08999633789062 391.46099853515625,237.5780029296875 C391.46099853515625,237.5780029296875 391.4649963378906,332.8710021972656 391.4649963378906,332.8710021972656 C391.4649963378906,333.16400146484375 391.62298583984375,333.4360046386719 391.8739929199219,333.5830078125z"></path></g><g transform="matrix(0,0,0,1,276,45)" opacity="1" style="display: none;"><path fill="rgb(255,255,255)" fill-opacity="1" d=" M365.822998046875,348.5429992675781 C365.822998046875,348.5429992675781 365.822998046875,333.2099914550781 365.822998046875,333.2099914550781 C365.822998046875,332.9219970703125 365.6679992675781,332.6499938964844 365.4200134277344,332.5 C365.16900634765625,332.35198974609375 364.8529968261719,332.35101318359375 364.6080017089844,332.4830017089844 C364.6080017089844,332.4830017089844 331.34100341796875,350.6570129394531 331.34100341796875,350.6570129394531 C331.34100341796875,350.6570129394531 331.34100341796875,305.50201416015625 331.34100341796875,305.50201416015625 C331.34100341796875,305.50201416015625 362.34100341796875,297.5710144042969 362.34100341796875,297.5710144042969 C362.7049865722656,297.47698974609375 362.9620056152344,297.1470031738281 362.9620056152344,296.7699890136719 C362.9620056152344,296.7699890136719 362.9620056152344,281.7640075683594 362.9620056152344,281.7640075683594 C362.9620056152344,281.5140075683594 362.84698486328125,281.2749938964844 362.6499938964844,281.1199951171875 C362.5050048828125,281.00201416015625 362.3210144042969,280.9389953613281 362.1340026855469,280.9389953613281 C362.1340026855469,280.9389953613281 331.34100341796875,287.6940002441406 331.34100341796875,287.6940002441406 C331.34100341796875,287.6940002441406 331.34100341796875,252.00999450683594 331.34100341796875,252.00999450683594 C331.34100341796875,252.00999450683594 364.97601318359375,252.00999450683594 364.97601318359375,252.00999450683594 C365.4309997558594,252.00999450683594 365.8009948730469,251.63900756835938 365.8009948730469,251.18499755859375 C365.8009948730469,251.18499755859375 365.8009948730469,237.41700744628906 365.8009948730469,237.41700744628906 C365.8009948730469,236.96299743652344 365.4309997558594,236.5919952392578 364.97601318359375,236.5919952392578 C364.97601318359375,236.5919952392578 315.2460021972656,236.5919952392578 315.2460021972656,236.5919952392578 C314.7919921875,236.5919952392578 314.4209899902344,236.96299743652344 314.4209899902344,237.41700744628906 C314.4209899902344,237.41700744628906 314.4209899902344,377.1679992675781 314.4209899902344,377.1679992675781 C314.4209899902344,377.46099853515625 314.5790100097656,377.7349853515625 314.8340148925781,377.8819885253906 C315.0849914550781,378.0270080566406 315.4079895019531,378.02899169921875 315.65899658203125,377.8840026855469 C315.65899658203125,377.8840026855469 365.4079895019531,349.25799560546875 365.4079895019531,349.25799560546875 C365.6659851074219,349.1130065917969 365.822998046875,348.8380126953125 365.822998046875,348.5429992675781z"></path></g><g transform="matrix(0,0,0,1,276,45)" opacity="1" style="display: none;"><path fill="rgb(255,255,255)" fill-opacity="1" d=" M286.2560119628906,394.2950134277344 C286.2560119628906,394.2950134277344 286.25,237.41700744628906 286.25,237.41700744628906 C286.25,236.96299743652344 285.8789978027344,236.5919952392578 285.42498779296875,236.5919952392578 C285.42498779296875,236.5919952392578 269.4360046386719,236.5919952392578 269.4360046386719,236.5919952392578 C268.9809875488281,236.5919952392578 268.6109924316406,236.96299743652344 268.6109924316406,237.41700744628906 C268.6109924316406,237.41700744628906 268.6109924316406,384.72900390625 268.6109924316406,384.72900390625 C268.6109924316406,384.72900390625 250.08900451660156,394.8489990234375 250.08900451660156,394.8489990234375 C250.08900451660156,394.8489990234375 231.49899291992188,384.72601318359375 231.49899291992188,384.72601318359375 C231.49899291992188,384.72601318359375 231.49899291992188,237.41700744628906 231.49899291992188,237.41700744628906 C231.49899291992188,236.96299743652344 231.1280059814453,236.5919952392578 230.6739959716797,236.5919952392578 C230.6739959716797,236.5919952392578 214.67300415039062,236.5919952392578 214.67300415039062,236.5919952392578 C214.45399475097656,236.5919952392578 214.24400329589844,236.67799377441406 214.08900451660156,236.83399963378906 C213.9340057373047,236.98699951171875 213.84800720214844,237.19900512695312 213.84800720214844,237.41700744628906 C213.84800720214844,237.41700744628906 213.8509979248047,394.2919921875 213.8509979248047,394.2919921875 C213.8509979248047,394.5870056152344 214.00900268554688,394.8609924316406 214.26699829101562,395.0069885253906 C214.26699829101562,395.0069885253906 249.6699981689453,415.3280029296875 249.6699981689453,415.3280029296875 C249.92100524902344,415.4729919433594 250.23699951171875,415.47100830078125 250.4949951171875,415.32598876953125 C250.4949951171875,415.32598876953125 285.843994140625,395.010009765625 285.843994140625,395.010009765625 C286.0989990234375,394.8630065917969 286.2560119628906,394.5899963378906 286.2560119628906,394.2950134277344z"></path></g><g transform="matrix(0,0,0,1,276,45)" opacity="1" style="display: none;"><path fill="rgb(255,255,255)" fill-opacity="1" d=" M187.9320068359375,379.91400146484375 C188.18299865722656,380.0589904785156 188.4600067138672,380.052001953125 188.69900512695312,379.9169921875 C188.94400024414062,379.7720031738281 189.0989990234375,379.4949951171875 189.0989990234375,379.1969909667969 C189.0989990234375,379.1969909667969 189.0989990234375,362.2080078125 189.0989990234375,362.2080078125 C189.0989990234375,361.89898681640625 188.93800354003906,361.61700439453125 188.67999267578125,361.4739990234375 C188.67999267578125,361.4739990234375 154.77200317382812,342.9729919433594 154.77200317382812,342.9729919433594 C154.77200317382812,342.9729919433594 154.77200317382812,301.927001953125 154.77200317382812,301.927001953125 C154.77200317382812,301.927001953125 185.2030029296875,309.7030029296875 185.2030029296875,309.7030029296875 C185.46099853515625,309.68798828125 185.80799865722656,309.3240051269531 185.80799865722656,308.86199951171875 C185.80799865722656,308.86199951171875 185.81500244140625,292.0950012207031 185.81500244140625,292.0950012207031 C185.81199645996094,291.78399658203125 185.43800354003906,291.40399169921875 185.0290069580078,291.3070068359375 C185.0290069580078,291.3070068359375 154.77200317382812,284.6000061035156 154.77200317382812,284.6000061035156 C154.77200317382812,284.6000061035156 154.77200317382812,252.00999450683594 154.77200317382812,252.00999450683594 C154.77200317382812,252.00999450683594 188.3350067138672,252.00999450683594 188.3350067138672,252.00999450683594 C188.76400756835938,252.00999450683594 189.11500549316406,251.63900756835938 189.11500549316406,251.18499755859375 C189.11500549316406,251.18499755859375 189.11500549316406,237.41700744628906 189.11500549316406,237.41700744628906 C189.11500549316406,236.96299743652344 188.76400756835938,236.5919952392578 188.3350067138672,236.5919952392578 C188.3350067138672,236.5919952392578 138.51800537109375,236.5919952392578 138.51800537109375,236.5919952392578 C138.08900451660156,236.5919952392578 137.73800659179688,236.96299743652344 137.73800659179688,237.41700744628906 C137.73800659179688,237.41700744628906 137.73800659179688,350.50201416015625 137.73800659179688,350.50201416015625 C137.73800659179688,350.8030090332031 137.89300537109375,351.08099365234375 138.14100646972656,351.2239990234375 C138.14100646972656,351.2239990234375 187.9320068359375,379.91400146484375 187.9320068359375,379.91400146484375z"></path></g><g transform="matrix(0,0,0,1,276,45)" opacity="1" style="display: none;"><path fill="rgb(255,255,255)" fill-opacity="1" d=" M95.78299713134766,326.9530029296875 C95.78299713134766,326.9530029296875 109.52899932861328,334.8900146484375 109.52899932861328,334.8900146484375 C109.78399658203125,335.0369873046875 110.09200286865234,335.0320129394531 110.34700012207031,334.885009765625 C110.59500122070312,334.739990234375 110.75399780273438,334.46600341796875 110.75399780273438,334.1730041503906 C110.75399780273438,334.1730041503906 110.75,237.41700744628906 110.75,237.41700744628906 C110.75,236.96299743652344 110.38300323486328,236.5919952392578 109.93199920654297,236.5919952392578 C109.93199920654297,236.5919952392578 96.18599700927734,236.5919952392578 96.18599700927734,236.5919952392578 C95.73500061035156,236.5919952392578 95.36699676513672,236.96299743652344 95.36699676513672,237.41700744628906 C95.36699676513672,237.41700744628906 95.36699676513672,271.5369873046875 95.36699676513672,271.5369873046875 C95.36699676513672,271.5369873046875 62.262001037597656,264.2489929199219 62.262001037597656,264.2489929199219 C62.262001037597656,264.2489929199219 62.262001037597656,237.41700744628906 62.262001037597656,237.41700744628906 C62.262001037597656,236.96299743652344 61.89400100708008,236.5919952392578 61.44300079345703,236.5919952392578 C61.44300079345703,236.5919952392578 47.85200119018555,236.5919952392578 47.85200119018555,236.5919952392578 C47.638999938964844,236.5919952392578 47.43000030517578,236.67999267578125 47.27899932861328,236.83099365234375 C47.12099838256836,236.98699951171875 47.034000396728516,237.19900512695312 47.034000396728516,237.41700744628906 C47.034000396728516,237.41700744628906 47.047000885009766,298.5989990234375 47.047000885009766,298.5989990234375 C47.047000885009766,298.89599609375 47.207000732421875,299.1709899902344 47.46200180053711,299.3190002441406 C47.46200180053711,299.3190002441406 61.0369987487793,307.04400634765625 61.0369987487793,307.04400634765625 C61.28799819946289,307.1889953613281 61.604000091552734,307.1860046386719 61.8489990234375,307.04400634765625 C62.104000091552734,306.8940124511719 62.262001037597656,306.62200927734375 62.262001037597656,306.3269958496094 C62.262001037597656,306.3269958496094 62.262001037597656,278.2749938964844 62.262001037597656,278.2749938964844 C62.262001037597656,278.2749938964844 95.36699676513672,286.73199462890625 95.36699676513672,286.73199462890625 C95.36699676513672,286.73199462890625 95.36699676513672,326.2349853515625 95.36699676513672,326.2349853515625 C95.36699676513672,326.5320129394531 95.5250015258789,326.8059997558594 95.78299713134766,326.9530029296875z"></path></g><g transform="matrix(0,0,0,1,276,45)" opacity="1" style="display: none;"><path fill="rgb(255,255,255)" fill-opacity="1" d=" M438.8139953613281,183.06399536132812 C413.75799560546875,187.74400329589844 381.5270080566406,189.12100219726562 358.2380065917969,180.21800231933594 C338.3699951171875,172.96800231933594 326.1180114746094,155.71499633789062 323.5790100097656,138.8280029296875 C320.9309997558594,118.08599853515625 330.31201171875,99.91500091552734 350.2909851074219,87.70800018310547 C373.5799865722656,73.85099792480469 410.5570068359375,74.30899810791016 435.9440002441406,83.94499969482422 C435.9440002441406,83.94499969482422 435.9440002441406,83.94499969482422 435.9440002441406,83.94499969482422 C435.9440002441406,83.94499969482422 435.9440002441406,107.09400177001953 435.9440002441406,107.09400177001953 C416.7380065917969,99.75 387.8190002441406,93.39800262451172 369.3869934082031,105.05500030517578 C356.1419982910156,113.49700164794922 352.05499267578125,126.89700317382812 355.36700439453125,140.29600524902344 C358.0169982910156,150.8509979248047 368.94500732421875,160.39500427246094 381.0870056152344,163.8820037841797 C389.6969909667969,166.17599487304688 400.2820129394531,166.91200256347656 409.885009765625,165.90199279785156 C409.885009765625,165.90199279785156 409.885009765625,165.90199279785156 409.885009765625,165.90199279785156 C409.885009765625,165.90199279785156 409.885009765625,148.70599365234375 409.885009765625,148.70599365234375 C409.885009765625,148.70599365234375 397.20098876953125,148.74099731445312 397.20098876953125,148.74099731445312 C397.20098876953125,148.74099731445312 397.20098876953125,128.00900268554688 397.20098876953125,128.00900268554688 C397.20098876953125,128.00900268554688 438.7850036621094,128.00900268554688 438.7850036621094,128.00900268554688 C438.7850036621094,128.00900268554688 438.8139953613281,183.06399536132812 438.8139953613281,183.06399536132812z"></path></g><g transform="matrix(0,0,0,1,276,45)" opacity="1" style="display: none;"><path fill="rgb(255,255,255)" fill-opacity="1" d=" M243.26600646972656,105.01300048828125 C243.26600646972656,105.01300048828125 223.46200561523438,142.47799682617188 223.46200561523438,142.47799682617188 C223.46200561523438,142.47799682617188 261.8190002441406,142.47799682617188 261.8190002441406,142.47799682617188 C261.8190002441406,142.47799682617188 243.26600646972656,105.01300048828125 243.26600646972656,105.01300048828125z M214.4530029296875,164.13499450683594 C214.4530029296875,164.13499450683594 203.45700073242188,185.03500366210938 203.45700073242188,185.03500366210938 C203.45700073242188,185.03500366210938 170.1510009765625,185.03500366210938 170.1510009765625,185.03500366210938 C170.1510009765625,185.03500366210938 224.23699951171875,78.61399841308594 224.23699951171875,78.61399841308594 C224.23699951171875,78.61399841308594 261.5929870605469,78.61399841308594 261.5929870605469,78.61399841308594 C261.5929870605469,78.61399841308594 316.677001953125,185.03500366210938 316.677001953125,185.03500366210938 C316.677001953125,185.03500366210938 283.281005859375,185.03500366210938 283.281005859375,185.03500366210938 C283.281005859375,185.03500366210938 271.72601318359375,164.13499450683594 271.72601318359375,164.13499450683594 C271.72601318359375,164.13499450683594 214.4530029296875,164.13499450683594 214.4530029296875,164.13499450683594 C214.4530029296875,164.13499450683594 214.4530029296875,164.13499450683594 214.4530029296875,164.13499450683594 C214.4530029296875,164.13499450683594 214.4530029296875,164.13499450683594 214.4530029296875,164.13499450683594z"></path></g><g transform="matrix(0,0,0,1,276,45)" opacity="1" style="display: none;"><path fill="rgb(255,255,255)" fill-opacity="1" d=" M134.031005859375,185.0449981689453 C134.031005859375,185.0449981689453 134.031005859375,100.98799896240234 134.031005859375,100.98799896240234 C134.031005859375,100.98799896240234 180.05799865722656,100.98799896240234 180.05799865722656,100.98799896240234 C180.05799865722656,100.98799896240234 180.05799865722656,78.6050033569336 180.05799865722656,78.6050033569336 C180.05799865722656,78.6050033569336 55.332000732421875,78.6050033569336 55.332000732421875,78.6050033569336 C55.332000732421875,78.6050033569336 55.332000732421875,100.98799896240234 55.332000732421875,100.98799896240234 C55.332000732421875,100.98799896240234 101.36000061035156,100.98799896240234 101.36000061035156,100.98799896240234 C101.36000061035156,100.98799896240234 101.36000061035156,185.0449981689453 101.36000061035156,185.0449981689453 C101.36000061035156,185.0449981689453 134.031005859375,185.0449981689453 134.031005859375,185.0449981689453 C134.031005859375,185.0449981689453 134.031005859375,185.0449981689453 134.031005859375,185.0449981689453 C134.031005859375,185.0449981689453 134.031005859375,185.0449981689453 134.031005859375,185.0449981689453z"></path></g><g style="display: block;" transform="matrix(-0.9177860617637634,0,0,1,505.446533203125,45)" opacity="1"><path fill="rgb(255,255,255)" fill-opacity="1" d=" M471.7149963378906,309.8290100097656 C471.7149963378906,309.8290100097656 250.10699462890625,437.17498779296875 250.10699462890625,437.17498779296875 C250.10699462890625,437.17498779296875 28.285999298095703,309.7669982910156 28.285999298095703,309.7669982910156 C28.285999298095703,309.7669982910156 28.285999298095703,59.42900085449219 28.285999298095703,59.42900085449219 C28.285999298095703,59.42900085449219 471.7149963378906,59.40800094604492 471.7149963378906,59.40800094604492 C471.7149963378906,59.40800094604492 471.7149963378906,309.8290100097656 471.7149963378906,309.8290100097656z M8.163999557495117,40.92399978637695 C8.163999557495117,40.92399978637695 8.149999618530273,320.0539855957031 8.149999618530273,320.0539855957031 C8.149999618530273,320.0539855957031 249.9810028076172,459.07598876953125 249.9810028076172,459.07598876953125 C249.9810028076172,459.07598876953125 491.8500061035156,320.04400634765625 491.8500061035156,320.04400634765625 C491.8500061035156,320.04400634765625 491.8500061035156,41.06999969482422 491.8500061035156,41.06999969482422 C491.8500061035156,41.06999969482422 8.163999557495117,40.92399978637695 8.163999557495117,40.92399978637695z"></path></g><g clip-path="url(#__lottie_element_15)" transform="matrix(1,0,0,1,0,0)" opacity="1" style="display: block; transform: rotateZ(148.82deg);"><g style="display: block;" transform="matrix(0,-1,0.9376745223999023,0,12.687591552734375,485.05999755859375)" opacity="1"><path fill="rgb(255,255,255)" fill-opacity="1" d=" M310.5,290.5 C310.5,290.5 189.5,290.5 189.5,290.5 C189.5,290.5 189.5,272.5 189.5,272.5 C189.5,272.5 310.5,272.5 310.5,272.5 C310.5,272.5 310.5,290.5 310.5,290.5z"></path></g></g><g clip-path="url(#__lottie_element_8)" transform="matrix(1,0,0,1,0,0)" opacity="1" style="display: block; transform: rotateZ(78.3262deg);"><g style="display: block;" transform="matrix(0.9376745223999023,0,0,1,90.20159912109375,2.855987548828125)" opacity="1"><path fill="rgb(255,255,255)" fill-opacity="1" d=" M189.71600341796875,290.2799987792969 C189.71600341796875,290.2799987792969 189.5,209.5 189.5,209.5 C189.5,209.5 207.5,209.5 207.5,209.5 C207.5,209.5 207.71600341796875,290.2799987792969 207.71600341796875,290.2799987792969 C207.71600341796875,290.2799987792969 189.71600341796875,290.2799987792969 189.71600341796875,290.2799987792969z"></path></g></g></g></g></svg>