<svg xmlns="http://www.w3.org/2000/svg" xmlns:xlink="http://www.w3.org/1999/xlink" viewBox="0 0 122 47"><path d="M 11.967 47 C 5.335 47 -0.041 47 -0.041 47 L -0.041 0 C -0.041 0 5.335 0 11.967 0 L 109.951 0 C 116.583 0 121.959 0 121.959 0 L 121.959 47 C 121.959 47 116.583 47 109.951 47 Z" fill="rgb(0,0,0)"></path><path d="M 9.572 42.25 C 9.267 42.25 8.97 42.246 8.668 42.239 C 8.041 42.231 7.417 42.177 6.798 42.076 C 6.222 41.977 5.664 41.792 5.142 41.528 C 4.624 41.267 4.153 40.923 3.745 40.512 C 3.331 40.105 2.986 39.633 2.724 39.115 C 2.46 38.594 2.276 38.035 2.181 37.458 C 2.078 36.838 2.023 36.211 2.015 35.583 C 2.008 35.372 2 34.67 2 34.67 L 2 11.569 C 2 11.569 2.009 10.878 2.015 10.675 C 2.022 10.047 2.078 9.422 2.18 8.803 C 2.276 8.224 2.459 7.664 2.724 7.141 C 2.984 6.623 3.327 6.151 3.739 5.743 C 4.15 5.331 4.623 4.986 5.141 4.72 C 5.662 4.457 6.219 4.274 6.794 4.176 C 7.415 4.075 8.042 4.02 8.67 4.012 L 9.572 4 L 112.341 4 L 113.254 4.013 C 113.877 4.02 114.498 4.074 115.112 4.175 C 115.693 4.274 116.257 4.459 116.783 4.723 C 117.821 5.258 118.666 6.104 119.198 7.143 C 119.459 7.663 119.639 8.219 119.733 8.792 C 119.837 9.416 119.895 10.047 119.907 10.679 C 119.91 10.962 119.91 11.267 119.91 11.569 C 119.918 11.944 119.918 12.301 119.918 12.661 L 119.918 33.59 C 119.918 33.953 119.918 34.308 119.91 34.665 C 119.91 34.99 119.91 35.288 119.906 35.595 C 119.895 36.216 119.837 36.835 119.735 37.448 C 119.642 38.029 119.46 38.593 119.195 39.118 C 118.932 39.631 118.589 40.098 118.18 40.504 C 117.771 40.918 117.299 41.263 116.78 41.526 C 116.255 41.792 115.693 41.978 115.112 42.076 C 114.494 42.177 113.869 42.232 113.243 42.239 C 112.95 42.246 112.644 42.25 112.346 42.25 L 111.262 42.252 Z" fill="rgb(0,0,0)"></path><path d="M 25.896 23.426 C 25.907 22.591 26.128 21.773 26.54 21.047 C 26.953 20.321 27.541 19.711 28.253 19.273 C 27.801 18.628 27.205 18.097 26.512 17.723 C 25.819 17.348 25.049 17.14 24.261 17.116 C 22.582 16.94 20.954 18.121 20.098 18.121 C 19.226 18.121 17.909 17.133 16.49 17.163 C 15.572 17.192 14.678 17.459 13.894 17.937 C 13.11 18.415 12.463 19.088 12.017 19.89 C 10.083 23.239 11.526 28.16 13.378 30.866 C 14.305 32.192 15.388 33.672 16.806 33.62 C 18.193 33.562 18.711 32.735 20.385 32.735 C 22.044 32.735 22.53 33.62 23.976 33.586 C 25.465 33.562 26.402 32.255 27.297 30.917 C 27.963 29.973 28.475 28.929 28.815 27.825 C 27.951 27.459 27.213 26.847 26.693 26.064 C 26.174 25.282 25.897 24.364 25.896 23.426 Z" fill="rgb(255,255,255)"></path><path d="M 23.165 15.336 C 23.976 14.362 24.376 13.109 24.279 11.845 C 23.039 11.975 21.894 12.568 21.072 13.505 C 20.669 13.963 20.361 14.495 20.165 15.072 C 19.969 15.649 19.888 16.258 19.928 16.866 C 20.548 16.873 21.161 16.738 21.722 16.473 C 22.283 16.208 22.776 15.819 23.165 15.336 Z" fill="rgb(255,255,255)"></path><path d="M 43.43 30.265 L 38.696 30.265 L 37.56 33.621 L 35.555 33.621 L 40.038 21.203 L 42.121 21.203 L 46.605 33.621 L 44.565 33.621 Z M 39.186 28.716 L 42.938 28.716 L 41.089 23.269 L 41.037 23.269 Z" fill="rgb(255,255,255)"></path><path d="M 56.287 29.095 C 56.287 31.908 54.781 33.716 52.509 33.716 C 51.933 33.746 51.361 33.613 50.857 33.333 C 50.353 33.053 49.938 32.637 49.66 32.132 L 49.617 32.132 L 49.617 36.616 L 47.759 36.616 L 47.759 24.567 L 49.558 24.567 L 49.558 26.073 L 49.592 26.073 C 49.883 25.571 50.304 25.157 50.812 24.875 C 51.32 24.593 51.894 24.454 52.475 24.473 C 54.772 24.473 56.287 26.289 56.287 29.095 Z M 54.377 29.095 C 54.377 27.262 53.43 26.057 51.984 26.057 C 50.565 26.057 49.609 27.287 49.609 29.095 C 49.609 30.919 50.565 32.141 51.984 32.141 C 53.43 32.141 54.377 30.944 54.377 29.095 Z" fill="rgb(255,255,255)"></path><path d="M 66.252 29.095 C 66.252 31.908 64.746 33.716 62.474 33.716 C 61.898 33.746 61.325 33.613 60.822 33.333 C 60.318 33.053 59.903 32.637 59.625 32.132 L 59.582 32.132 L 59.582 36.616 L 57.724 36.616 L 57.724 24.567 L 59.523 24.567 L 59.523 26.073 L 59.557 26.073 C 59.848 25.571 60.269 25.157 60.777 24.875 C 61.285 24.593 61.859 24.454 62.44 24.473 C 64.737 24.473 66.252 26.289 66.252 29.095 Z M 64.342 29.095 C 64.342 27.262 63.395 26.057 61.949 26.057 C 60.529 26.057 59.574 27.287 59.574 29.095 C 59.574 30.919 60.529 32.141 61.949 32.141 C 63.395 32.141 64.342 30.944 64.342 29.095 Z" fill="rgb(255,255,255)"></path><path d="M 72.838 30.161 C 72.976 31.393 74.172 32.201 75.807 32.201 C 77.373 32.201 78.5 31.393 78.5 30.282 C 78.5 29.318 77.82 28.741 76.211 28.346 L 74.602 27.958 C 72.321 27.407 71.263 26.341 71.263 24.61 C 71.263 22.468 73.13 20.996 75.781 20.996 C 78.405 20.996 80.204 22.468 80.265 24.61 L 78.389 24.61 C 78.276 23.371 77.252 22.623 75.755 22.623 C 74.258 22.623 73.233 23.38 73.233 24.482 C 73.233 25.359 73.888 25.876 75.488 26.271 L 76.856 26.607 C 79.404 27.21 80.463 28.233 80.463 30.05 C 80.463 32.373 78.612 33.828 75.669 33.828 C 72.915 33.828 71.056 32.407 70.936 30.161 Z" fill="rgb(255,255,255)"></path><path d="M 84.474 22.425 L 84.474 24.567 L 86.195 24.567 L 86.195 26.039 L 84.474 26.039 L 84.474 31.03 C 84.474 31.806 84.818 32.167 85.575 32.167 C 85.78 32.163 85.984 32.149 86.186 32.124 L 86.186 33.587 C 85.846 33.651 85.5 33.679 85.154 33.673 C 83.321 33.673 82.606 32.984 82.606 31.229 L 82.606 26.039 L 81.29 26.039 L 81.29 24.567 L 82.606 24.567 L 82.606 22.425 Z" fill="rgb(255,255,255)"></path><path d="M 87.192 29.095 C 87.192 26.246 88.87 24.456 91.486 24.456 C 94.111 24.456 95.781 26.246 95.781 29.095 C 95.781 31.951 94.12 33.733 91.486 33.733 C 88.853 33.733 87.192 31.951 87.192 29.095 Z M 93.888 29.095 C 93.888 27.141 92.992 25.987 91.486 25.987 C 89.98 25.987 89.086 27.149 89.086 29.095 C 89.086 31.057 89.98 32.201 91.486 32.201 C 92.992 32.201 93.888 31.057 93.888 29.095 Z" fill="rgb(255,255,255)"></path><path d="M 97.314 24.567 L 99.086 24.567 L 99.086 26.108 L 99.129 26.108 C 99.249 25.627 99.531 25.202 99.927 24.904 C 100.324 24.606 100.811 24.454 101.307 24.473 C 101.521 24.472 101.734 24.495 101.943 24.542 L 101.943 26.28 C 101.673 26.198 101.391 26.16 101.108 26.168 C 100.838 26.157 100.569 26.205 100.319 26.308 C 100.07 26.41 99.845 26.566 99.661 26.764 C 99.477 26.962 99.338 27.197 99.254 27.454 C 99.169 27.711 99.141 27.983 99.172 28.251 L 99.172 33.621 L 97.314 33.621 Z" fill="rgb(255,255,255)"></path><path d="M 110.512 30.962 C 110.262 32.605 108.661 33.733 106.613 33.733 C 103.979 33.733 102.345 31.969 102.345 29.138 C 102.345 26.298 103.988 24.456 106.535 24.456 C 109.04 24.456 110.615 26.177 110.615 28.922 L 110.615 29.559 L 104.221 29.559 L 104.221 29.671 C 104.191 30.004 104.233 30.34 104.343 30.656 C 104.453 30.971 104.629 31.26 104.86 31.503 C 105.09 31.745 105.369 31.936 105.679 32.062 C 105.989 32.189 106.322 32.248 106.656 32.235 C 107.095 32.276 107.536 32.175 107.913 31.945 C 108.29 31.716 108.582 31.371 108.747 30.962 Z M 104.229 28.26 L 108.756 28.26 C 108.773 27.96 108.727 27.66 108.622 27.379 C 108.518 27.098 108.356 26.841 108.148 26.626 C 107.939 26.41 107.688 26.24 107.411 26.125 C 107.133 26.011 106.835 25.956 106.535 25.962 C 106.233 25.96 105.933 26.018 105.652 26.133 C 105.372 26.248 105.118 26.417 104.904 26.63 C 104.689 26.844 104.519 27.098 104.404 27.378 C 104.288 27.657 104.229 27.957 104.229 28.26 Z" fill="rgb(255,255,255)"></path><path d="M 38.953 11.856 C 39.343 11.828 39.734 11.887 40.098 12.028 C 40.462 12.17 40.79 12.39 41.059 12.674 C 41.327 12.957 41.53 13.297 41.651 13.668 C 41.772 14.04 41.81 14.433 41.761 14.821 C 41.761 16.727 40.73 17.823 38.953 17.823 L 36.798 17.823 L 36.798 11.856 Z M 37.725 16.979 L 38.85 16.979 C 39.128 16.995 39.407 16.95 39.665 16.845 C 39.924 16.741 40.156 16.58 40.344 16.374 C 40.533 16.169 40.673 15.924 40.755 15.657 C 40.837 15.39 40.858 15.109 40.817 14.833 C 40.855 14.558 40.831 14.278 40.748 14.014 C 40.665 13.749 40.525 13.506 40.337 13.302 C 40.148 13.098 39.918 12.938 39.661 12.834 C 39.403 12.73 39.127 12.684 38.85 12.699 L 37.725 12.699 Z" fill="rgb(255,255,255)"></path><path d="M 42.808 15.569 C 42.78 15.273 42.813 14.975 42.907 14.693 C 43.001 14.411 43.153 14.151 43.353 13.931 C 43.553 13.711 43.797 13.536 44.068 13.415 C 44.34 13.295 44.634 13.233 44.931 13.233 C 45.229 13.233 45.523 13.295 45.794 13.415 C 46.066 13.536 46.31 13.711 46.51 13.931 C 46.71 14.151 46.862 14.411 46.956 14.693 C 47.049 14.975 47.083 15.273 47.055 15.569 C 47.084 15.866 47.05 16.165 46.957 16.447 C 46.863 16.73 46.712 16.989 46.511 17.21 C 46.312 17.43 46.068 17.606 45.795 17.727 C 45.523 17.847 45.229 17.91 44.931 17.91 C 44.634 17.91 44.34 17.847 44.067 17.727 C 43.795 17.606 43.551 17.43 43.351 17.21 C 43.151 16.989 43 16.73 42.906 16.447 C 42.813 16.165 42.779 15.866 42.808 15.569 Z M 46.141 15.569 C 46.141 14.593 45.702 14.022 44.933 14.022 C 44.16 14.022 43.726 14.593 43.726 15.569 C 43.726 16.553 44.161 17.12 44.933 17.12 C 45.702 17.12 46.141 16.549 46.141 15.569 Z" fill="rgb(255,255,255)"></path><path d="M 52.7 17.823 L 51.778 17.823 L 50.848 14.506 L 50.777 14.506 L 49.851 17.823 L 48.938 17.823 L 47.696 13.32 L 48.598 13.32 L 49.404 16.756 L 49.471 16.756 L 50.397 13.32 L 51.249 13.32 L 52.175 16.756 L 52.245 16.756 L 53.048 13.32 L 53.937 13.32 Z" fill="rgb(255,255,255)"></path><path d="M 54.98 13.32 L 55.836 13.32 L 55.836 14.035 L 55.902 14.035 C 56.015 13.778 56.205 13.563 56.446 13.419 C 56.687 13.275 56.967 13.21 57.246 13.233 C 57.465 13.216 57.685 13.249 57.89 13.33 C 58.094 13.41 58.278 13.535 58.428 13.696 C 58.578 13.857 58.689 14.049 58.755 14.259 C 58.82 14.469 58.837 14.69 58.805 14.908 L 58.805 17.823 L 57.916 17.823 L 57.916 15.131 C 57.916 14.407 57.602 14.047 56.944 14.047 C 56.796 14.04 56.647 14.066 56.509 14.122 C 56.371 14.178 56.247 14.262 56.145 14.371 C 56.042 14.479 55.965 14.608 55.917 14.75 C 55.87 14.891 55.853 15.04 55.869 15.188 L 55.869 17.823 L 54.98 17.823 Z" fill="rgb(255,255,255)"></path><path d="M 60.221 11.562 L 61.109 11.562 L 61.109 17.823 L 60.221 17.823 Z" fill="rgb(255,255,255)"></path><path d="M 62.345 15.569 C 62.317 15.273 62.351 14.975 62.444 14.693 C 62.538 14.411 62.69 14.151 62.89 13.931 C 63.09 13.711 63.334 13.536 63.606 13.415 C 63.877 13.295 64.171 13.233 64.469 13.233 C 64.766 13.233 65.06 13.295 65.332 13.415 C 65.604 13.536 65.847 13.711 66.047 13.931 C 66.248 14.151 66.399 14.411 66.493 14.693 C 66.587 14.975 66.621 15.273 66.593 15.569 C 66.621 15.866 66.588 16.165 66.494 16.447 C 66.401 16.73 66.249 16.989 66.049 17.21 C 65.849 17.43 65.605 17.606 65.333 17.727 C 65.061 17.848 64.766 17.91 64.469 17.91 C 64.171 17.91 63.877 17.848 63.605 17.727 C 63.333 17.606 63.089 17.43 62.889 17.21 C 62.689 16.989 62.537 16.73 62.443 16.447 C 62.35 16.165 62.316 15.866 62.345 15.569 Z M 65.678 15.569 C 65.678 14.593 65.239 14.023 64.47 14.023 C 63.697 14.023 63.263 14.593 63.263 15.569 C 63.263 16.553 63.698 17.12 64.47 17.12 C 65.239 17.12 65.678 16.549 65.678 15.569 Z" fill="rgb(255,255,255)"></path><path d="M 67.527 16.549 C 67.527 15.739 68.131 15.271 69.202 15.205 L 70.422 15.135 L 70.422 14.746 C 70.422 14.271 70.107 14.002 69.5 14.002 C 69.004 14.002 68.66 14.184 68.561 14.502 L 67.701 14.502 C 67.792 13.729 68.519 13.233 69.541 13.233 C 70.67 13.233 71.307 13.795 71.307 14.746 L 71.307 17.823 L 70.451 17.823 L 70.451 17.19 L 70.381 17.19 C 70.238 17.417 70.038 17.602 69.8 17.726 C 69.563 17.85 69.296 17.909 69.028 17.897 C 68.839 17.917 68.648 17.896 68.468 17.838 C 68.287 17.779 68.12 17.683 67.979 17.556 C 67.837 17.429 67.724 17.274 67.646 17.101 C 67.569 16.927 67.528 16.739 67.527 16.549 Z M 70.422 16.165 L 70.422 15.788 L 69.322 15.858 C 68.702 15.9 68.421 16.111 68.421 16.508 C 68.421 16.913 68.772 17.149 69.256 17.149 C 69.397 17.163 69.541 17.149 69.677 17.107 C 69.813 17.065 69.939 16.996 70.048 16.904 C 70.156 16.812 70.245 16.699 70.31 16.572 C 70.374 16.445 70.412 16.307 70.422 16.165 Z" fill="rgb(255,255,255)"></path><path d="M 72.475 15.569 C 72.475 14.146 73.206 13.245 74.344 13.245 C 74.625 13.232 74.904 13.3 75.149 13.44 C 75.394 13.579 75.593 13.786 75.725 14.035 L 75.791 14.035 L 75.791 11.562 L 76.68 11.562 L 76.68 17.823 L 75.828 17.823 L 75.828 17.111 L 75.758 17.111 C 75.616 17.359 75.41 17.563 75.16 17.701 C 74.911 17.84 74.629 17.907 74.344 17.897 C 73.198 17.897 72.475 16.996 72.475 15.569 Z M 73.393 15.569 C 73.393 16.524 73.843 17.099 74.596 17.099 C 75.345 17.099 75.808 16.516 75.808 15.573 C 75.808 14.635 75.34 14.043 74.596 14.043 C 73.848 14.043 73.393 14.622 73.393 15.569 Z" fill="rgb(255,255,255)"></path><path d="M 80.357 15.569 C 80.328 15.273 80.362 14.975 80.456 14.693 C 80.55 14.411 80.702 14.151 80.902 13.931 C 81.102 13.711 81.345 13.536 81.617 13.415 C 81.889 13.295 82.183 13.233 82.48 13.233 C 82.778 13.233 83.072 13.295 83.343 13.415 C 83.615 13.536 83.859 13.711 84.059 13.931 C 84.259 14.151 84.411 14.411 84.504 14.693 C 84.598 14.975 84.632 15.273 84.604 15.569 C 84.633 15.866 84.599 16.165 84.506 16.447 C 84.412 16.73 84.26 16.989 84.06 17.21 C 83.86 17.43 83.617 17.606 83.344 17.727 C 83.072 17.847 82.778 17.91 82.48 17.91 C 82.183 17.91 81.888 17.847 81.616 17.727 C 81.344 17.606 81.1 17.43 80.9 17.21 C 80.7 16.989 80.549 16.73 80.455 16.447 C 80.361 16.165 80.328 15.866 80.357 15.569 Z M 83.69 15.569 C 83.69 14.593 83.251 14.022 82.482 14.022 C 81.709 14.022 81.275 14.593 81.275 15.569 C 81.275 16.553 81.709 17.12 82.482 17.12 C 83.251 17.12 83.69 16.549 83.69 15.569 Z" fill="rgb(255,255,255)"></path><path d="M 85.796 13.32 L 86.651 13.32 L 86.651 14.035 L 86.718 14.035 C 86.83 13.778 87.02 13.563 87.261 13.419 C 87.502 13.275 87.782 13.21 88.061 13.233 C 88.281 13.216 88.501 13.249 88.705 13.33 C 88.91 13.41 89.094 13.535 89.243 13.696 C 89.393 13.857 89.505 14.049 89.57 14.259 C 89.635 14.469 89.652 14.69 89.62 14.908 L 89.62 17.823 L 88.731 17.823 L 88.731 15.131 C 88.731 14.407 88.417 14.047 87.76 14.047 C 87.611 14.04 87.463 14.066 87.325 14.122 C 87.186 14.178 87.062 14.262 86.96 14.371 C 86.858 14.479 86.78 14.608 86.733 14.75 C 86.685 14.891 86.669 15.04 86.685 15.188 L 86.685 17.823 L 85.796 17.823 Z" fill="rgb(255,255,255)"></path><path d="M 94.642 12.199 L 94.642 13.34 L 95.617 13.34 L 95.617 14.089 L 94.642 14.089 L 94.642 16.404 C 94.642 16.876 94.836 17.082 95.278 17.082 C 95.392 17.082 95.505 17.075 95.617 17.062 L 95.617 17.802 C 95.458 17.831 95.296 17.846 95.134 17.848 C 94.145 17.848 93.752 17.5 93.752 16.632 L 93.752 14.089 L 93.037 14.089 L 93.037 13.34 L 93.752 13.34 L 93.752 12.199 Z" fill="rgb(255,255,255)"></path><path d="M 96.832 11.562 L 97.713 11.562 L 97.713 14.043 L 97.783 14.043 C 97.901 13.784 98.097 13.568 98.342 13.423 C 98.588 13.279 98.872 13.214 99.156 13.237 C 99.374 13.225 99.592 13.261 99.794 13.343 C 99.997 13.425 100.178 13.551 100.326 13.711 C 100.475 13.872 100.585 14.063 100.651 14.271 C 100.717 14.479 100.736 14.699 100.707 14.915 L 100.707 17.823 L 99.817 17.823 L 99.817 15.135 C 99.817 14.415 99.482 14.051 98.855 14.051 C 98.702 14.039 98.548 14.06 98.404 14.113 C 98.261 14.166 98.13 14.25 98.022 14.358 C 97.914 14.467 97.831 14.598 97.779 14.742 C 97.727 14.886 97.707 15.04 97.721 15.193 L 97.721 17.823 L 96.832 17.823 Z" fill="rgb(255,255,255)"></path><path d="M 105.888 16.607 C 105.768 17.018 105.506 17.375 105.149 17.613 C 104.793 17.851 104.364 17.956 103.937 17.91 C 103.641 17.918 103.346 17.861 103.073 17.743 C 102.801 17.626 102.557 17.45 102.359 17.229 C 102.161 17.008 102.014 16.746 101.927 16.463 C 101.84 16.179 101.817 15.88 101.857 15.585 C 101.818 15.291 101.842 14.991 101.928 14.706 C 102.015 14.421 102.162 14.159 102.358 13.935 C 102.555 13.712 102.798 13.534 103.069 13.413 C 103.341 13.292 103.636 13.23 103.933 13.233 C 105.186 13.233 105.942 14.089 105.942 15.503 L 105.942 15.813 L 102.762 15.813 L 102.762 15.863 C 102.748 16.028 102.769 16.195 102.823 16.351 C 102.877 16.508 102.964 16.652 103.077 16.773 C 103.19 16.895 103.327 16.991 103.479 17.056 C 103.631 17.122 103.796 17.155 103.962 17.153 C 104.174 17.178 104.39 17.14 104.58 17.043 C 104.771 16.946 104.929 16.794 105.033 16.607 Z M 102.762 15.156 L 105.037 15.156 C 105.048 15.005 105.027 14.853 104.976 14.71 C 104.925 14.568 104.845 14.437 104.741 14.327 C 104.636 14.217 104.51 14.131 104.37 14.072 C 104.23 14.014 104.08 13.986 103.928 13.989 C 103.775 13.987 103.622 14.016 103.48 14.074 C 103.337 14.132 103.208 14.218 103.099 14.327 C 102.991 14.435 102.905 14.565 102.847 14.707 C 102.789 14.85 102.76 15.002 102.762 15.156 Z" fill="rgb(255,255,255)"></path></svg>